<?xml version="1.0" encoding="UTF-8" standalone="no"?>
<!DOCTYPE svg PUBLIC "-//W3C//DTD SVG 1.1//EN" "http://www.w3.org/Graphics/SVG/1.1/DTD/svg11.dtd">
<svg width="100%" height="100%" viewBox="0 0 3840 398" version="1.1" xmlns="http://www.w3.org/2000/svg" xmlns:xlink="http://www.w3.org/1999/xlink" xml:space="preserve" xmlns:serif="http://www.serif.com/" style="fill-rule:evenodd;clip-rule:evenodd;stroke-linejoin:round;stroke-miterlimit:1.414;">
    <g transform="matrix(0.575211,0,0,0.575956,-73.844632,-271.563523)">
        <clipPath id="_clip1">
            <rect x="119.718" y="471.437" width="3908.224" height="689.873"/>
        </clipPath>
        <g clip-path="url(#_clip1)">
            <g transform="matrix(950.707566,0,0,950.707566,7071.292123,1148)">
            </g>
            <text x="95px" y="1148px" style="font-family:'BNAxelGroteskBold', 'BN Axel Grotesk';font-weight:700;font-size:950.708px;">C<tspan x="648.312px 1143.63px 1631.343px 2048.704px 2403.318px 2631.488px 3189.553px 3454.801px 4012.866px 4695.474px 5200.3px 5617.66px 5920.936px 6425.762px " y="1148px 1148px 1148px 1148px 1148px 1148px 1148px 1148px 1148px 1148px 1148px 1148px 1148px 1148px ">AUSTIC COASTAL</tspan></text>
        </g>
    </g>
    <g transform="matrix(0.575211,0,0,0.575956,-73.844632,-271.563523)">
        <clipPath id="_clip2">
            <rect x="4692.046" y="471.437" width="2112.145" height="689.873"/>
        </clipPath>
        <g clip-path="url(#_clip2)">
            <g transform="matrix(950.707566,0,0,950.707566,7071.292123,1148)">
            </g>
            <text x="95px" y="1148px" style="font-family:'BNAxelGroteskBold', 'BN Axel Grotesk';font-weight:700;font-size:950.708px;">C<tspan x="648.312px 1143.63px 1631.343px 2048.704px 2403.318px 2631.488px 3189.553px 3454.801px 4012.866px 4695.474px 5200.3px 5617.66px 5920.936px 6425.762px " y="1148px 1148px 1148px 1148px 1148px 1148px 1148px 1148px 1148px 1148px 1148px 1148px 1148px 1148px ">AUSTIC COASTAL</tspan></text>
        </g>
    </g>
    <g id="Caustic-Coastal-transparent" transform="matrix(0.396823,0,0,0.397337,2438.482789,198.631632)">
        <g transform="matrix(1,0,0,1,-500,-500)">
            <clipPath id="_clip3">
                <rect x="0" y="0" width="1000" height="1000"/>
            </clipPath>
            <g clip-path="url(#_clip3)">
                <g transform="matrix(3.091528,0,0,3.198413,-21.852653,-17.259502)">
                    <path d="M76.337,176.069C31.362,175.118 15.595,86.322 115.997,55.015C203.226,27.817 281.169,64.908 295.352,112.189C310.365,162.238 256.789,210.481 202.301,173.318C202.301,173.318 172.93,152.186 143.872,152.251C126.02,152.186 118.43,154.255 105.084,163.35C102.125,165.217 90.986,174.78 76.337,176.069ZM168.801,101.562C194.482,93.111 186.446,110.586 204.657,103.037C196.921,100.4 192.843,98.432 193.213,97.138C201.506,99.877 207.147,100.083 209.234,96.892C200.896,92.928 194.193,88.575 187.796,88.653C179.175,88.757 172.664,93.034 168.801,101.562ZM157.348,126.658C157.579,126.782 157.695,126.789 157.993,127.292C160.807,132.643 166.597,135.166 171.474,134.336C175.96,133.573 180.233,129.853 181.429,124.53C181.512,124.16 181.58,123.782 181.632,123.397C181.707,122.923 181.735,122.757 181.913,122.611L181.968,122.57C183.034,121.725 182.551,119.72 180.963,119.693L178.627,119.654C177.24,119.63 176.489,121.315 177.316,122.297L177.346,122.332C177.682,122.727 177.575,122.916 177.203,124.409C175.015,130.976 166.21,132.273 162.138,126.307C161.642,125.518 161.558,125.407 161.723,125.027L161.728,125.017C162.245,123.826 160.969,122.361 159.601,122.868L157.42,123.677C156.033,124.192 156.137,126.12 157.348,126.658ZM146.158,85.123C139.91,85.123 134.837,91.288 134.837,98.88C134.837,106.473 139.91,112.637 146.158,112.637C152.407,112.637 157.48,106.473 157.48,98.88C157.48,91.288 152.407,85.123 146.158,85.123Z"/>
                </g>
                <g transform="matrix(3.116323,0,0,3.152063,-22.601106,3.186671)">
                    <path d="M97.563,179.236L97.548,179.221C98.452,177.898 134.085,134.031 199.068,179.402C212.255,188.75 200.326,207.155 186.844,195.581C133.181,144.499 104.937,186.024 100.418,195.242C92.676,212.007 99.594,231.966 204.26,207.994C271.716,193.702 293.223,265.495 210.628,258.808C178.639,256.22 116.634,239.896 113.033,259.112C108.696,272.24 161.831,299.234 194.847,282C198.216,279.831 199.907,282.484 196.806,285.542C175.566,303.211 100.418,282.426 105.443,258.027C109.78,236.152 150.264,242.839 204.26,250.799C280.571,263.268 260.871,204.885 205.019,217.327C43.423,255.577 93.24,185.048 97.563,179.236" style="fill-rule:nonzero;stroke:black;stroke-width:1.6px;"/>
                </g>
                <g transform="matrix(2.929657,0,0,2.936286,1.987541,2.793752)">
                    <path d="M332.125,169.332C332.125,258.675 259.534,331.101 169.991,331.101C80.445,331.101 7.855,258.675 7.855,169.332C7.855,79.99 80.445,7.563 169.991,7.563C259.534,7.563 332.125,79.99 332.125,169.332Z" style="fill:none;fill-rule:nonzero;stroke:black;stroke-width:16.71px;stroke-linejoin:miter;stroke-miterlimit:10;"/>
                </g>
            </g>
        </g>
    </g>
</svg>
